<?xml version="1.0" standalone="no"?>
<!DOCTYPE svg PUBLIC "-//W3C//DTD SVG 20010904//EN"
 "http://www.w3.org/TR/2001/REC-SVG-20010904/DTD/svg10.dtd">
<svg version="1.0" xmlns="http://www.w3.org/2000/svg"
 width="300.000000pt" height="200.000000pt" viewBox="0 0 300.000000 200.000000"
 preserveAspectRatio="xMidYMid meet">
<metadata>
Created by potrace 1.15, written by Peter Selinger 2001-2017
</metadata>
<g transform="translate(0.000000,200.000000) scale(0.100000,-0.100000)"
fill="#000000" stroke="none">
<path d="M805 1974 c-16 -8 -46 -30 -65 -49 l-35 -34 -122 0 c-67 1 -127 -2
-133 -6 -5 -3 -45 -1 -87 5 -43 7 -100 14 -128 16 -27 1 -79 12 -114 23 -113
37 -144 19 -79 -44 49 -47 88 -95 76 -95 -6 0 -5 -8 4 -17 16 -20 23 -79 9
-87 -10 -6 -7 -108 4 -126 4 -6 9 -22 11 -36 2 -13 5 -35 7 -49 5 -30 34 -75
61 -95 27 -19 153 -22 171 -4 6 7 15 51 18 97 8 93 14 120 28 111 5 -3 9 6 9
20 0 14 5 26 10 26 6 0 10 -4 10 -10 0 -5 7 -10 15 -10 8 0 15 -7 15 -15 0 -8
5 -15 11 -15 8 0 9 -21 4 -67 -4 -48 -2 -80 8 -108 l14 -40 65 -2 c43 -1 75
-7 91 -18 24 -15 32 -16 104 -1 73 16 82 20 135 73 83 82 98 123 93 258 -4
124 -19 219 -41 253 -36 56 -111 76 -169 46z"/>
<path d="M1444 1593 c-66 -7 -127 -17 -136 -23 -10 -5 -18 -6 -18 -2 0 11
-129 6 -179 -8 -38 -10 -65 -30 -42 -30 6 0 11 -7 11 -16 0 -10 6 -14 14 -11
16 6 50 -26 39 -36 -3 -4 4 -7 16 -7 12 0 19 -4 16 -10 -3 -5 -1 -10 6 -10 7
0 9 -10 7 -25 -4 -20 -1 -26 19 -31 17 -5 21 -9 13 -14 -10 -6 -9 -10 1 -16
16 -10 18 -36 4 -46 -6 -4 -1 -8 10 -9 l20 0 -20 -9 c-17 -7 -17 -9 -2 -9 21
-1 23 -21 1 -21 -8 0 -12 -4 -9 -10 3 -5 -4 -10 -16 -10 -18 0 -19 -2 -9 -15
7 -8 9 -15 4 -15 -5 -1 2 -10 15 -20 l23 -20 -26 0 c-24 0 -32 -13 -27 -43 1
-4 -6 -10 -14 -13 -8 -3 -12 -10 -9 -15 3 -5 -3 -9 -12 -9 -16 0 -15 -2 2 -21
l19 -21 -35 7 c-31 7 -33 6 -21 -9 11 -13 11 -16 0 -16 -11 0 -11 -2 1 -10 12
-7 8 -11 -17 -16 -18 -4 -30 -10 -27 -15 3 -5 0 -9 -6 -9 -6 0 -9 -4 -6 -8 6
-10 -30 -52 -43 -52 -5 0 -7 -11 -6 -24 2 -14 -3 -27 -9 -29 -13 -5 -15 -41
-3 -53 4 -4 7 -21 7 -39 0 -17 6 -37 13 -44 10 -10 9 -11 -6 -5 -13 5 -16 2
-11 -10 7 -18 103 -56 161 -63 39 -5 42 -4 49 21 3 14 3 46 0 70 -4 28 -3 47
4 51 6 3 8 11 5 16 -4 5 -1 9 5 9 6 0 9 4 5 9 -3 5 4 13 16 16 26 8 48 -17 23
-25 -9 -3 -15 -9 -15 -13 1 -4 1 -10 0 -14 -4 -29 5 -61 23 -75 19 -17 19 -18
2 -19 -18 0 -17 -1 1 -8 11 -5 38 -7 60 -6 22 2 95 6 162 9 l122 6 21 -36 c13
-20 28 -33 35 -30 8 3 19 -2 27 -11 27 -33 71 -43 124 -29 83 22 157 64 189
107 17 22 35 45 41 52 24 28 36 59 26 69 -14 14 38 85 78 110 17 10 33 25 36
32 3 8 16 22 29 30 32 21 58 10 149 -58 197 -148 419 -181 570 -85 34 21 46
35 46 53 0 34 -24 39 -81 15 -58 -25 -144 -23 -200 6 -74 39 -304 248 -297
271 4 13 -25 54 -39 54 -6 0 -17 16 -23 35 -6 19 -17 38 -24 42 -7 5 -21 20
-31 36 -9 15 -24 27 -31 27 -8 0 -14 4 -14 9 0 12 -67 81 -79 81 -6 0 -11 4
-11 9 0 9 -47 34 -125 65 -35 14 -89 24 -200 40 -16 2 -30 5 -30 6 0 8 -266 3
-361 -7z"/>
<path d="M867 189 c-10 -11 -23 -31 -29 -45 -6 -13 -15 -24 -20 -24 -4 0 -8
-6 -8 -14 0 -15 -53 -32 -69 -22 -5 4 -12 2 -16 -4 -3 -5 -26 -8 -50 -7 -25 1
-45 -1 -45 -5 0 -5 -29 -6 -65 -2 l-65 7 0 -31 c0 -50 14 -51 460 -23 91 6
302 18 470 26 543 28 720 54 720 105 0 38 -150 59 -205 28 -72 -40 -133 -53
-169 -35 -12 6 -22 5 -29 -2 -15 -15 -59 -14 -92 3 -15 8 -33 12 -40 9 -7 -2
-16 5 -20 17 -6 19 -12 21 -48 16 -23 -3 -172 -15 -332 -26 -159 -11 -300 -22
-312 -24 -19 -3 -20 0 -12 21 19 52 7 69 -24 32z"/>
</g>
</svg>
